<?xml version="1.0" standalone="no"?>
<!DOCTYPE svg PUBLIC "-//W3C//DTD SVG 20010904//EN"
 "http://www.w3.org/TR/2001/REC-SVG-20010904/DTD/svg10.dtd">
<svg version="1.0" xmlns="http://www.w3.org/2000/svg"
 width="716.000000pt" height="708.000000pt" viewBox="0 0 716.000000 708.000000"
 preserveAspectRatio="xMidYMid meet">
<metadata>
Created by potrace 1.16, written by Peter Selinger 2001-2019
</metadata>
<g transform="translate(0.000000,708.000000) scale(0.100000,-0.100000)"
fill="#000000" stroke="none">
<path d="M3745 6490 c-72 -8 -133 -22 -156 -35 -7 -5 -58 -9 -113 -11 -96 -2
-185 -17 -196 -33 -8 -13 -60 -22 -60 -11 0 5 5 10 12 10 6 0 9 2 6 5 -3 3
-21 -2 -41 -10 -21 -9 -67 -15 -110 -15 -49 0 -94 -7 -133 -21 -85 -29 -164
-48 -202 -49 -19 0 -31 -4 -27 -10 4 -6 -7 -8 -27 -5 -23 4 -27 3 -14 -3 18
-8 18 -9 2 -15 -10 -4 -22 -5 -26 -2 -9 5 -95 -48 -105 -66 -9 -14 2 -11 45
11 47 24 57 25 40 5 -7 -8 -17 -15 -22 -15 -6 0 -23 -9 -39 -21 -16 -11 -36
-18 -44 -15 -10 3 -23 -8 -39 -32 -16 -25 -45 -49 -85 -71 -33 -17 -66 -41
-71 -51 -9 -16 -8 -19 7 -13 10 3 27 13 38 23 11 9 34 25 50 35 24 15 27 15
17 2 -8 -9 -11 -20 -8 -25 7 -12 -35 -47 -59 -49 -50 -4 -79 -13 -86 -25 -13
-21 26 -22 57 -2 l27 18 -14 -22 c-16 -25 -40 -35 -84 -36 -26 -1 -33 -8 -57
-56 -15 -30 -27 -62 -27 -70 -1 -8 -8 -28 -17 -45 -10 -19 -11 -31 -5 -33 6
-2 11 -8 11 -14 0 -5 -8 -7 -18 -4 -14 5 -30 -7 -63 -45 -24 -28 -54 -61 -66
-72 -13 -11 -23 -29 -23 -39 0 -10 -4 -18 -9 -18 -14 0 -77 -91 -85 -120 -3
-14 -3 -19 0 -12 3 6 10 12 15 12 6 0 -1 -15 -15 -33 -16 -20 -27 -50 -30 -78
-2 -24 -5 -50 -7 -58 -2 -7 2 -16 9 -18 7 -3 12 3 12 15 0 10 23 41 50 68 28
27 53 57 56 67 3 9 11 17 19 17 7 0 15 6 18 13 2 6 7 10 10 7 4 -3 -5 -18 -18
-32 -14 -16 -22 -33 -19 -45 6 -23 -19 -47 -50 -48 -16 0 -20 -6 -19 -22 2
-13 -7 -29 -22 -41 -26 -21 -23 -32 8 -32 13 0 17 -5 13 -16 -3 -9 -6 -22 -6
-29 0 -7 -9 -23 -21 -36 -11 -13 -18 -18 -14 -11 3 6 2 12 -3 12 -5 0 -12 -9
-15 -20 -7 -26 -24 -26 -32 0 -8 25 4 48 15 30 5 -8 12 -2 23 18 12 25 12 30
1 25 -10 -3 -12 0 -8 10 3 8 1 18 -5 22 -6 3 -14 -2 -18 -12 -3 -10 -14 -28
-24 -41 -10 -13 -16 -29 -13 -37 3 -8 -4 -20 -15 -27 -25 -15 -27 -28 -6 -28
8 0 15 -8 15 -17 0 -15 2 -16 10 -3 5 9 5 19 -1 27 -11 13 -4 33 11 33 5 0 12
-11 16 -25 5 -20 9 -23 20 -14 27 22 15 -10 -18 -46 -26 -30 -29 -38 -17 -46
13 -8 6 -13 -13 -10 -13 2 -42 -32 -57 -64 -11 -25 -42 -229 -43 -285 0 -8
-11 -69 -25 -134 -13 -66 -22 -124 -20 -131 3 -6 -1 -49 -9 -96 -16 -106 -22
-229 -10 -221 6 3 6 -3 1 -14 -16 -39 -17 -154 0 -204 18 -54 45 -75 45 -35 0
14 5 25 10 25 6 0 10 -17 10 -37 l0 -38 21 25 c11 14 18 19 14 11 -4 -7 -2
-17 6 -22 9 -5 10 -9 2 -9 -6 0 -9 -9 -6 -20 3 -11 9 -20 13 -20 5 0 12 -9 15
-20 3 -11 13 -20 20 -20 8 0 17 -15 20 -37 4 -21 15 -54 24 -74 14 -30 20 -35
38 -28 23 8 40 63 30 99 -3 11 -1 23 4 26 5 3 9 33 9 67 0 80 14 128 45 155
14 12 25 28 25 36 0 7 8 16 18 20 9 3 24 9 32 14 37 22 61 31 144 56 96 30
128 28 150 -7 8 -12 26 -80 41 -152 32 -160 70 -304 98 -370 49 -119 118 -153
355 -177 140 -14 357 -1 452 28 70 21 160 61 160 72 0 5 18 33 41 63 63 83
116 180 151 271 17 46 34 88 38 93 4 6 11 28 15 50 7 43 49 90 72 81 8 -3 28
-6 44 -6 47 0 74 -38 88 -123 7 -40 9 -80 6 -89 -4 -9 -1 -19 5 -23 9 -6 9 -9
0 -15 -7 -4 -14 -38 -16 -76 -2 -38 -10 -82 -16 -97 -8 -22 -8 -31 1 -36 6 -4
9 -15 5 -24 -3 -10 -1 -17 5 -17 7 0 9 -9 5 -26 -5 -18 0 -31 16 -49 15 -16
21 -31 17 -46 -8 -28 9 -50 31 -42 14 5 15 3 5 -8 -18 -18 -16 -42 2 -35 8 3
19 -3 25 -13 12 -23 -11 -36 -29 -18 -10 9 -11 6 -6 -15 5 -19 3 -28 -5 -28
-7 0 -9 -8 -5 -20 4 -12 0 -26 -9 -35 -11 -11 -15 -12 -19 -2 -2 6 -4 -3 -4
-22 0 -19 -5 -37 -11 -39 -7 -2 -10 -8 -7 -12 6 -10 -25 -50 -38 -50 -5 0 -4
7 3 15 9 10 9 15 1 15 -6 0 -11 -4 -11 -8 0 -4 -14 -12 -32 -17 -17 -6 -38
-20 -46 -33 -13 -20 -13 -22 2 -16 9 3 16 1 16 -5 0 -6 -5 -11 -12 -11 -7 0
-6 -6 4 -17 21 -25 29 -51 18 -58 -6 -4 -10 -1 -10 4 0 6 -4 11 -10 11 -5 0
-6 -8 -3 -17 5 -13 3 -15 -13 -9 -10 5 -25 8 -31 7 -7 0 -21 -2 -30 -3 -10 -1
-24 -8 -30 -17 -12 -14 -14 -14 -28 3 -8 11 -18 17 -22 13 -3 -4 2 -17 13 -29
10 -12 13 -18 7 -14 -20 11 -16 -18 5 -44 18 -22 18 -23 -5 -48 -35 -38 -29
-49 27 -57 28 -4 50 -11 50 -16 0 -5 7 -9 15 -9 8 0 14 6 12 13 -1 9 12 11 48
9 41 -3 48 -1 38 9 -19 19 -16 31 5 20 13 -7 23 -6 30 1 9 9 12 9 12 1 0 -7
-5 -15 -10 -18 -6 -3 -10 -12 -10 -18 0 -8 3 -8 9 1 9 16 81 6 81 -10 0 -6 6
-8 13 -5 11 4 66 -30 56 -36 -58 -33 -96 -48 -127 -48 -20 -1 -61 -8 -90 -17
-44 -13 -55 -14 -62 -3 -4 8 -13 10 -19 6 -13 -7 -55 -16 -83 -16 -10 0 -21
-5 -24 -11 -4 -6 -10 -5 -15 3 -8 11 -11 11 -20 -4 -6 -9 -15 -15 -20 -12 -5
4 -7 11 -4 16 4 5 1 9 -4 9 -6 0 -11 -7 -11 -15 0 -8 -4 -15 -10 -15 -5 0 -10
6 -10 13 0 9 -2 9 -9 -1 -6 -10 -48 -14 -152 -17 -278 -8 -429 -15 -429 -20 0
-71 -2 -68 28 -60 36 10 41 10 150 -13 l92 -19 0 40 c0 36 2 39 23 32 56 -17
67 -17 67 -1 0 22 92 23 113 1 13 -12 16 -12 20 7 5 19 10 20 84 14 43 -4 109
-11 146 -17 l69 -11 -4 -47 c-3 -42 -1 -47 15 -43 12 3 17 15 17 42 0 21 6 42
13 47 6 6 42 11 78 12 l65 2 11 -36 c7 -20 7 -37 2 -41 -17 -10 -9 -24 14 -24
13 0 38 -7 55 -16 18 -8 36 -13 42 -9 5 3 10 -1 10 -10 0 -13 -4 -14 -20 -5
-19 10 -20 9 -14 -14 4 -16 2 -26 -5 -26 -6 0 -8 7 -5 15 4 8 1 15 -5 15 -6 0
-11 -7 -11 -15 0 -8 -4 -15 -10 -15 -5 0 -10 -4 -10 -10 0 -5 6 -9 13 -7 6 1
11 -6 11 -15 -1 -10 2 -18 7 -18 5 0 10 10 10 23 1 17 3 16 8 -8 4 -16 3 -33
-2 -36 -5 -3 -1 -13 7 -22 20 -20 21 -34 2 -18 -12 10 -19 8 -35 -8 -11 -11
-21 -16 -23 -11 -5 14 -43 16 -41 3 4 -17 -16 -17 -23 0 -6 17 -165 19 -176 3
-5 -7 -11 -8 -15 -1 -5 6 -21 11 -36 13 -23 2 -30 -3 -41 -29 -8 -20 -16 -27
-20 -20 -4 7 -1 23 8 36 9 13 16 26 16 28 0 5 -77 -16 -113 -31 -16 -7 -33
-12 -38 -12 -5 0 -4 -9 3 -20 8 -13 20 -19 31 -16 26 6 20 -13 -8 -26 -19 -8
-23 -16 -19 -34 4 -15 0 -25 -12 -32 -21 -12 -12 -42 13 -42 29 0 45 15 46 44
2 27 20 35 33 15 5 -8 10 -6 16 5 12 22 28 20 28 -3 0 -10 6 -23 13 -29 20
-17 60 14 52 39 -4 11 -2 19 4 19 6 0 11 -4 11 -10 0 -5 4 -10 10 -10 14 0 62
-51 55 -58 -3 -4 -10 0 -15 8 -5 8 -12 11 -16 7 -11 -10 16 -37 38 -37 10 0
16 5 13 10 -3 6 -2 10 4 10 5 0 13 -4 16 -10 3 -5 11 -10 16 -10 6 0 7 5 4 10
-13 22 7 31 28 13 20 -17 20 -17 14 1 -7 18 -6 18 18 2 24 -16 25 -16 25 4 0
12 5 18 10 15 6 -3 10 -2 10 4 0 5 -7 14 -16 19 -14 8 -14 10 1 22 13 11 15
10 9 -4 -4 -11 -1 -16 10 -16 9 0 19 -7 22 -15 8 -19 19 -19 38 1 16 16 41 10
31 -7 -4 -5 -1 -9 6 -9 19 0 76 -55 71 -69 -3 -10 0 -11 9 -5 22 13 87 15 95
2 4 -6 3 -8 -4 -4 -6 3 -13 2 -16 -3 -4 -5 3 -13 15 -16 15 -5 19 -13 16 -27
-5 -16 -3 -17 10 -6 14 11 16 10 10 -14 -4 -15 -3 -30 3 -33 15 -10 12 -35 -5
-35 -16 0 -21 -15 -7 -23 4 -2 1 -2 -5 -1 -7 2 -17 -5 -22 -14 -6 -10 -11 -12
-11 -4 0 6 -7 12 -16 12 -11 0 -14 -6 -9 -20 4 -12 2 -20 -5 -20 -7 0 -10 -7
-6 -15 7 -20 -3 -19 -26 2 -12 10 -18 12 -18 4 0 -7 -10 -11 -22 -9 -16 2 -22
9 -20 21 2 11 -4 17 -18 17 -11 0 -20 -4 -20 -10 0 -5 4 -10 10 -10 5 0 7 -7
4 -15 -5 -13 -9 -13 -22 -3 -13 11 -14 10 -4 -9 9 -16 9 -22 0 -25 -7 -3 -12
-18 -13 -34 0 -22 -5 -30 -22 -32 -24 -4 -30 -16 -13 -27 5 -3 7 -12 3 -20 -4
-12 -9 -9 -25 10 -11 14 -24 25 -29 25 -6 0 -6 -5 0 -13 58 -70 62 -77 47 -77
-9 0 -16 -5 -16 -12 0 -9 -3 -9 -12 0 -18 18 -30 14 -23 -8 5 -15 0 -21 -19
-26 -14 -3 -32 -17 -41 -30 -17 -26 -55 -33 -55 -9 0 8 -4 15 -10 15 -6 0 -6
-9 0 -24 6 -17 5 -26 -3 -30 -9 -3 -9 -7 1 -14 10 -7 10 -14 -2 -36 -13 -26
-15 -27 -24 -10 -6 11 -11 24 -11 29 -2 17 -49 15 -55 -2 -5 -13 -9 -13 -23
-2 -15 13 -16 11 -10 -9 4 -18 2 -22 -10 -18 -8 3 -16 6 -19 6 -2 0 -1 8 3 18
6 16 5 16 -14 -1 -23 -20 -44 -23 -37 -3 3 8 -4 16 -18 20 -32 8 -38 8 -38 -4
0 -5 3 -9 8 -7 4 1 8 -2 9 -8 3 -12 -47 -7 -64 7 -9 7 -15 6 -19 -6 -5 -12
-10 -14 -19 -6 -6 5 -14 7 -18 4 -3 -3 -3 4 0 17 4 15 3 20 -5 15 -7 -4 -12
-13 -12 -19 0 -7 -12 -13 -26 -13 -14 -1 -32 -11 -40 -23 -16 -22 -44 -19 -44
5 0 12 -20 19 -44 15 -4 -1 -14 3 -22 10 -8 6 -23 9 -34 6 -23 -6 -27 12 -7
32 10 11 8 12 -9 3 -24 -13 -34 -7 -34 20 0 19 -8 22 -26 10 -14 -9 0 -50 20
-58 9 -4 13 -17 12 -39 -2 -25 0 -32 10 -28 17 6 18 20 2 26 -7 3 -3 4 10 4
19 -1 22 -6 18 -24 -4 -12 -2 -25 4 -28 5 -3 10 -1 10 4 0 6 5 11 11 11 7 0
10 -12 7 -30 -4 -23 -2 -27 8 -19 14 12 54 3 67 -15 6 -8 10 -8 14 2 7 18 24
15 21 -4 -2 -10 3 -19 10 -21 6 -3 12 0 12 6 0 6 7 8 15 5 8 -4 15 -13 15 -21
0 -8 5 -11 12 -7 7 4 22 9 35 10 17 2 23 -3 23 -16 0 -10 -5 -22 -10 -25 -6
-3 -10 -18 -9 -33 l1 -27 7 25 c4 15 10 20 14 13 4 -6 4 -18 1 -26 -7 -19 37
-50 59 -41 18 7 23 19 33 87 6 44 22 65 25 32 5 -52 59 -125 59 -78 0 9 3 13
8 9 10 -11 9 -50 -3 -58 -16 -12 -25 -9 -19 6 3 8 1 17 -5 21 -11 6 -16 -12
-13 -47 1 -10 -4 -17 -11 -15 -6 1 -10 -5 -8 -13 13 -49 13 -63 3 -56 -6 4 -8
14 -5 23 5 13 2 15 -11 10 -15 -6 -17 -3 -13 13 3 12 0 20 -8 20 -7 0 -16 -12
-19 -26 -6 -21 -11 -25 -30 -20 -21 5 -24 2 -28 -28 -2 -19 2 -38 10 -45 7 -7
11 -15 9 -18 -8 -8 -47 21 -47 35 0 7 -5 10 -10 7 -6 -3 -10 -1 -10 4 0 6 6
11 14 11 8 0 16 7 20 15 8 22 -4 47 -21 41 -9 -4 -16 4 -19 24 -4 16 -9 28
-13 27 -10 -3 -9 16 0 42 16 40 3 34 -20 -10 -21 -39 -21 -54 0 -54 5 0 9 -3
9 -7 0 -5 0 -13 0 -20 0 -6 -6 -3 -14 7 -12 17 -16 18 -31 5 -16 -14 -17 -13
-11 8 10 29 -3 28 -33 -3 l-23 -25 28 0 c22 0 25 -3 16 -12 -7 -7 -12 -22 -12
-34 0 -25 25 -50 34 -35 11 18 54 -8 49 -29 -4 -15 -1 -18 17 -13 20 5 21 4
11 -15 -13 -25 -14 -35 -2 -28 13 8 42 -4 35 -15 -12 -21 9 -29 23 -9 14 19
13 23 -3 35 -18 14 -18 14 -1 15 18 0 41 -42 26 -48 -13 -5 -11 -30 4 -35 10
-4 10 -6 0 -6 -21 -2 -15 -29 8 -36 16 -5 18 -9 9 -15 -7 -4 -9 -13 -5 -19 5
-9 11 -7 22 6 13 17 13 16 4 -4 -12 -23 -4 -56 10 -47 5 3 6 10 3 16 -4 6 -1
9 7 6 8 -3 13 -12 13 -21 -1 -9 2 -14 7 -11 5 3 16 -2 25 -10 8 -9 11 -16 5
-16 -6 0 -11 -5 -11 -11 0 -9 16 -7 57 8 15 6 11 -20 -7 -43 -8 -9 -10 -15 -5
-13 31 12 401 208 468 248 44 25 118 67 166 92 92 48 196 116 319 206 40 30
77 51 82 48 6 -3 10 0 10 7 0 7 26 42 58 78 70 77 92 121 88 175 -2 22 3 78
11 125 8 47 16 99 19 115 2 17 10 35 17 40 6 6 29 36 51 68 21 31 42 57 47 57
5 0 9 7 9 15 0 8 5 15 10 15 6 0 10 5 10 10 0 6 17 37 38 69 37 55 50 78 85
146 36 72 70 168 83 235 2 8 9 40 15 71 l12 57 49 5 c57 7 117 27 136 44 7 7
17 13 21 13 18 0 43 66 43 113 0 29 8 77 18 107 10 30 43 152 74 271 47 183
56 232 59 325 2 68 12 143 26 201 27 107 23 136 -22 163 -42 26 -73 25 -126
-5 -48 -28 -71 -32 -71 -11 0 15 29 86 30 72 0 -5 6 -3 14 3 18 15 29 145 16
196 -6 22 -14 103 -18 180 -7 137 -8 202 -4 375 1 47 0 118 -4 158 -4 46 -2
72 5 72 6 0 4 14 -5 35 -8 20 -16 61 -19 93 -2 31 -7 93 -10 137 -4 44 -8 109
-9 145 -2 36 -9 76 -15 89 -11 19 -11 25 0 32 8 5 11 9 7 10 -5 1 -12 2 -16 3
-8 1 -39 33 -94 95 -15 17 -30 31 -33 31 -29 0 -35 2 -35 11 0 6 9 9 20 6 12
-3 20 0 20 7 0 17 -29 56 -43 56 -8 0 -8 -3 1 -12 23 -23 12 -31 -13 -8 -18
17 -23 31 -21 53 5 38 -2 57 -19 57 -22 0 -29 22 -11 32 25 14 14 91 -23 162
-17 32 -31 68 -31 81 0 13 -11 32 -25 43 -14 11 -25 25 -25 31 0 6 -4 11 -10
11 -5 0 -10 9 -10 20 0 10 -20 35 -44 56 -27 22 -46 48 -50 65 -4 23 -11 29
-31 29 -14 0 -28 7 -31 15 -9 24 -45 40 -54 25 -12 -20 -67 -2 -94 31 -16 19
-30 27 -41 23 -11 -5 -18 0 -21 14 -6 22 -91 88 -101 78 -4 -3 -12 3 -20 14
-8 11 -21 20 -29 20 -19 0 -70 54 -94 101 -24 45 -63 83 -115 109 -35 19 -56
21 -175 19 -191 -3 -226 -3 -305 3 -38 3 -101 2 -140 -2z m-389 -840 c11 -10
17 -10 29 0 13 11 19 8 40 -14 16 -18 25 -22 25 -12 0 8 -6 16 -12 19 -7 2
-10 7 -6 11 3 4 20 0 37 -9 17 -9 31 -11 31 -5 0 5 5 10 11 10 6 0 8 -7 5 -16
-5 -13 -1 -15 19 -12 13 3 22 2 20 -2 -6 -9 30 -20 67 -20 18 0 35 -10 52 -32
22 -28 26 -30 26 -13 0 15 7 21 25 23 14 1 25 -3 25 -8 0 -13 37 -13 45 0 3 6
-3 10 -14 10 -12 0 -21 5 -21 10 0 16 19 11 58 -15 l37 -25 3 25 c2 15 9 24
15 22 7 -3 11 -10 9 -16 -1 -6 4 -11 11 -11 21 0 28 12 16 26 -7 8 -7 14 0 19
6 3 13 -6 17 -20 6 -24 8 -25 24 -10 17 15 19 15 33 -6 11 -15 21 -19 34 -14
29 11 102 12 106 0 2 -6 10 -5 20 4 15 12 17 11 17 -3 0 -19 4 -20 31 -3 17
10 22 9 34 -6 10 -15 21 -17 44 -12 20 4 31 3 31 -4 0 -6 -14 -11 -32 -11 -41
0 -33 -7 15 -13 28 -4 37 -1 37 10 0 13 3 13 16 3 8 -8 29 -15 47 -17 33 -3
53 -23 35 -34 -16 -10 5 -19 63 -26 65 -8 115 -33 111 -56 -3 -13 3 -17 23
-17 20 0 26 -4 22 -14 -4 -11 -1 -13 10 -9 13 5 15 1 9 -20 -3 -15 -3 -27 1
-27 5 0 17 -18 27 -40 11 -22 23 -40 28 -40 4 0 8 -4 8 -10 0 -5 -8 -7 -17 -4
-12 4 -9 -1 7 -15 17 -14 20 -21 10 -21 -10 0 -8 -6 8 -18 13 -10 25 -30 25
-44 2 -20 5 -24 15 -16 16 14 29 1 14 -14 -17 -17 -15 -28 5 -21 10 4 14 2 10
-4 -4 -6 0 -13 8 -17 17 -6 21 -56 4 -56 -5 0 -7 -5 -3 -11 3 -6 17 -9 30 -6
13 2 24 3 24 1 0 -1 3 -11 6 -21 5 -15 4 -15 -5 -3 -8 12 -13 12 -23 2 -9 -9
-9 -12 2 -12 12 -1 11 -4 -3 -14 -12 -9 -14 -16 -7 -21 5 -3 8 -11 5 -16 -3
-5 0 -6 8 -3 8 3 18 1 22 -5 3 -6 1 -11 -5 -11 -6 0 -4 -7 5 -16 9 -10 14 -26
11 -37 -2 -11 2 -26 10 -34 20 -20 29 -10 15 15 -14 26 -14 45 -1 37 6 -4 8
-11 5 -16 -3 -5 1 -6 10 -3 21 9 16 -36 -7 -57 -10 -9 -18 -30 -18 -48 0 -17
-5 -31 -10 -31 -18 0 -32 -51 -19 -66 21 -25 0 -28 -26 -4 -14 13 -25 18 -25
12 0 -7 6 -12 13 -12 9 0 9 -2 -1 -9 -19 -11 3 -27 51 -36 40 -8 39 -18 -3
-30 -22 -7 -23 -6 -11 9 12 14 11 16 -3 16 -14 0 -21 -11 -17 -32 2 -13 -16
-9 -29 7 -12 14 -43 16 -56 2 -4 -4 -2 -13 5 -20 6 -8 9 -21 6 -30 -6 -15 54
-68 65 -57 3 3 6 -7 8 -22 2 -20 12 -30 45 -43 27 -11 37 -19 28 -24 -9 -6 -8
-11 4 -21 8 -7 15 -9 15 -4 0 4 6 -1 14 -11 8 -11 12 -25 9 -32 -3 -7 -1 -13
5 -13 6 0 4 -12 -4 -30 -9 -16 -17 -30 -20 -30 -12 0 -52 29 -89 62 -22 21
-45 38 -51 38 -6 0 -18 8 -25 17 -12 15 -12 16 1 8 12 -6 13 -5 3 5 -9 10 -15
10 -28 -4 -9 -9 -21 -14 -26 -11 -5 4 -9 2 -9 -4 0 -5 8 -12 18 -14 13 -4 12
-5 -5 -6 -12 0 -34 4 -49 9 -25 10 -26 9 -13 -7 8 -9 9 -14 2 -10 -6 4 -31 10
-55 13 -24 4 -49 11 -55 16 -10 8 -13 6 -13 -6 0 -9 -6 -16 -14 -16 -8 0 -16
-5 -18 -10 -3 -10 -18 -12 -168 -26 -41 -4 -77 -10 -80 -14 -6 -8 -85 -30
-124 -34 -15 -1 -32 -10 -37 -19 -16 -27 -50 -42 -60 -26 -8 11 -12 10 -25 -6
-8 -11 -22 -20 -32 -20 -9 0 -19 -10 -22 -23 -5 -22 -7 -23 -180 -24 -110 -1
-183 3 -195 10 -11 6 -28 13 -37 16 -10 3 -18 14 -18 24 0 10 -12 25 -27 33
-16 8 -32 19 -38 25 -15 17 -44 24 -50 14 -4 -6 -11 -10 -16 -10 -6 0 -8 4 -5
9 8 12 -21 34 -34 26 -5 -3 -10 -1 -10 6 0 7 -13 10 -35 7 -24 -3 -35 0 -35 9
0 7 -8 13 -17 14 -10 0 -51 4 -90 7 -48 5 -74 4 -77 -3 -2 -7 -9 -7 -22 0 -11
6 -41 8 -69 5 -35 -3 -45 -7 -32 -12 30 -13 -4 -41 -39 -32 -19 5 -25 4 -20
-5 11 -16 -20 -14 -57 6 -30 15 -31 15 -18 0 12 -15 10 -17 -14 -17 -15 0 -59
-7 -99 -16 -39 -8 -92 -19 -118 -25 -105 -20 -156 -32 -213 -47 -33 -8 -69
-16 -80 -16 -33 -2 -45 -15 -45 -51 0 -19 -6 -37 -12 -42 -7 -4 -63 -24 -124
-44 -61 -21 -131 -49 -157 -64 l-47 -26 -39 23 c-56 32 -107 18 -138 -37 l-23
-40 0 38 c0 77 51 133 155 170 39 13 87 27 108 31 32 6 37 10 32 27 -4 12 2
34 14 55 12 19 21 44 21 55 0 11 4 28 9 37 14 28 22 84 11 77 -6 -3 -10 -2
-10 4 0 6 11 13 24 17 14 3 23 11 20 18 -2 6 2 31 11 55 11 33 12 47 4 57 -9
11 -8 14 1 14 7 0 28 14 47 30 18 17 42 30 53 30 23 0 35 16 18 23 -10 3 -10
7 -1 17 14 15 -2 54 -18 45 -23 -15 -6 12 19 28 22 15 23 17 5 12 -15 -4 -22
-1 -25 11 -3 15 -7 14 -32 -9 -16 -15 -32 -27 -36 -27 -11 0 -22 32 -14 39 4
3 9 0 11 -7 6 -17 23 -5 23 17 0 18 24 22 49 7 16 -10 28 1 36 37 8 32 -5 36
-23 7 -7 -11 -17 -20 -23 -20 -6 0 3 19 21 43 24 33 28 43 15 45 -19 4 -19 18
0 26 8 3 15 15 15 26 0 12 -3 19 -7 17 -5 -3 -9 6 -9 20 -2 17 2 23 13 19 8
-3 11 -1 8 4 -3 6 1 13 9 16 9 3 16 10 16 15 0 4 -8 5 -17 2 -16 -6 -16 -5 -4
10 7 9 20 17 27 17 8 0 14 7 14 15 0 9 6 12 18 8 12 -4 10 1 -7 15 -13 12 -20
22 -15 22 12 0 35 50 28 61 -3 5 -1 9 5 9 5 0 13 9 16 20 3 11 13 20 21 20 8
0 13 4 9 9 -3 6 4 15 15 21 11 6 20 19 20 29 0 23 46 62 65 55 8 -4 15 -2 15
3 0 6 19 16 42 23 24 6 53 21 67 31 13 10 29 19 35 19 6 0 37 21 69 46 32 25
97 66 145 90 48 25 94 51 102 58 29 25 87 47 132 49 25 1 44 5 41 10 -2 4 3 7
11 7 9 0 16 5 16 10 0 6 15 8 40 4 27 -4 40 -3 40 5 0 6 -6 11 -14 11 -8 0
-18 4 -21 10 -4 7 3 7 20 0 35 -13 38 -13 31 5 -5 13 1 15 35 11 22 -2 47 -10
55 -16z m-541 -1506 c44 -4 111 -6 148 -5 82 2 181 -23 173 -44 -3 -8 3 -17
15 -20 34 -11 20 -25 -25 -25 -24 0 -88 -9 -142 -20 -160 -33 -251 -73 -329
-144 -21 -20 -43 -36 -48 -36 -4 0 -5 -4 -2 -10 3 -5 21 -2 43 8 41 19 40 18
101 68 81 65 186 104 281 104 52 0 65 -7 49 -27 -16 -18 -29 -16 -30 5 -1 11
-4 8 -8 -8 -6 -20 -18 -28 -73 -42 -36 -9 -93 -33 -127 -53 -34 -20 -70 -38
-81 -40 -11 -2 -24 -7 -30 -10 -5 -3 -26 -8 -47 -11 -38 -4 -71 -24 -42 -24
10 -1 9 -5 -5 -15 -15 -11 -16 -15 -5 -16 8 -1 19 0 24 1 6 2 24 4 40 7 17 2
50 6 75 10 25 3 63 5 85 4 22 -1 65 -3 95 -4 30 -1 61 -6 69 -11 10 -6 16 -6
19 2 2 7 8 10 12 7 5 -3 6 -13 3 -21 -5 -14 -3 -14 16 -3 11 8 21 17 21 21 0
5 5 8 11 8 6 0 8 -8 5 -18 -6 -17 0 -19 51 -18 50 1 58 -2 55 -16 -2 -12 2
-16 13 -12 8 3 15 4 15 1 0 -10 -91 -47 -114 -47 -12 0 -31 -6 -42 -14 -17
-13 -9 -14 71 -11 50 2 105 6 124 9 36 6 71 31 71 50 0 6 -4 5 -9 -2 -7 -11
-9 -10 -15 3 -4 11 -12 14 -25 10 -17 -5 -19 -2 -16 22 2 15 4 32 4 36 1 5 25
7 54 5 l52 -3 -3 33 c-1 18 2 31 7 28 5 -3 14 7 19 24 9 23 8 33 -4 45 -9 8
-11 15 -5 15 6 0 11 7 11 16 0 8 -4 12 -10 9 -6 -3 -7 1 -4 9 4 11 0 16 -12
17 -12 0 -7 4 10 10 19 5 34 5 42 -2 9 -8 12 -4 10 14 -2 13 -6 28 -9 34 -4 6
6 9 24 8 39 -2 94 -56 115 -112 41 -107 -44 -430 -139 -531 -58 -61 -211 -91
-459 -92 -259 0 -383 30 -429 103 -25 42 -52 135 -79 274 -19 98 -21 125 -12
213 11 121 34 162 114 207 61 35 81 41 123 37 17 -2 66 -6 110 -10z m2673
-278 c11 -43 5 -68 -26 -90 -24 -19 -26 -19 -36 -2 -6 10 -30 44 -54 77 -41
55 -43 61 -39 111 3 29 6 55 6 57 1 1 32 -25 71 -59 46 -41 73 -73 78 -94z
m-363 67 c8 -18 17 -68 20 -111 7 -85 0 -121 -61 -322 -47 -150 -68 -183 -135
-205 -116 -39 -363 -38 -559 1 -41 9 -79 20 -84 25 -6 5 -19 9 -30 10 -12 0
-15 3 -8 6 6 2 12 16 12 29 0 13 5 24 12 24 6 0 3 6 -8 14 -14 10 -21 11 -26
3 -13 -21 -18 -1 -9 31 6 19 6 34 0 37 -5 4 -9 15 -9 26 0 10 -5 19 -12 19 -6
0 -8 3 -5 6 4 4 13 2 20 -4 8 -7 16 -10 19 -7 2 3 19 1 36 -4 17 -5 31 -6 29
-3 -1 4 12 20 28 37 25 25 39 30 83 31 29 1 55 -3 58 -7 8 -14 24 -10 18 4 -4
11 7 13 45 11 27 -1 63 -5 78 -8 15 -3 53 -8 83 -11 30 -3 72 -8 93 -11 21 -3
37 -2 37 4 0 6 -22 13 -50 17 -27 4 -53 11 -56 16 -4 6 -10 6 -18 0 -6 -6 -18
-6 -25 -2 -10 7 -9 10 8 16 11 3 24 4 28 2 5 -3 46 -8 92 -11 46 -4 93 -14
105 -22 13 -8 26 -11 29 -7 4 3 15 -12 24 -35 11 -30 22 -42 37 -43 17 -1 18
-2 4 -6 -21 -5 -24 -23 -4 -23 38 0 105 299 93 415 -3 29 -13 68 -23 86 -16
32 -16 33 0 20 9 -8 23 -29 31 -48z m-770 -173 c-3 -5 -2 -10 4 -10 5 0 13 5
16 10 4 6 11 8 16 4 6 -4 6 -11 -2 -20 -14 -17 2 -19 19 -2 9 9 15 9 23 1 6
-6 18 -9 25 -6 8 3 14 0 14 -5 0 -6 19 -11 43 -10 64 0 69 -1 61 -14 -4 -7 -4
-10 1 -6 4 4 20 1 35 -7 15 -8 31 -11 35 -7 5 4 5 2 1 -5 -4 -7 -13 -10 -21
-6 -10 3 -15 -1 -16 -13 0 -11 -3 -14 -6 -6 -7 17 -23 15 -23 -4 0 -10 -6 -14
-17 -10 -10 2 -45 7 -78 11 -57 6 -59 6 -40 -10 20 -17 16 -15 -65 25 -9 5
-14 19 -13 35 2 20 -1 24 -10 16 -10 -8 -13 -4 -11 17 2 31 2 32 10 32 3 0 2
-4 -1 -10z m748 -407 c-3 -8 0 -11 9 -8 8 3 20 -1 27 -9 10 -12 9 -14 -6 -10
-14 4 -18 -1 -20 -22 0 -15 -7 -30 -13 -34 -7 -4 -9 -13 -6 -19 4 -6 2 -11 -3
-11 -6 0 -11 7 -11 15 0 20 -19 19 -27 -1 -7 -18 15 -36 35 -29 6 2 12 -1 12
-6 0 -6 -9 -9 -20 -6 -25 6 -26 -8 -2 -23 15 -10 14 -10 -5 -5 -13 3 -32 7
-42 10 -11 3 -22 2 -24 -2 -3 -4 6 -9 20 -10 14 0 29 -7 33 -13 5 -7 15 -10
24 -7 9 4 16 2 16 -3 0 -6 -4 -10 -10 -10 -5 0 -10 -5 -10 -11 0 -5 5 -7 10
-4 6 3 10 -1 10 -11 0 -11 6 -15 19 -11 14 3 19 0 18 -13 -1 -10 -5 -16 -9
-14 -4 3 -8 -3 -8 -13 0 -14 -2 -15 -9 -4 -6 9 -11 10 -15 2 -7 -10 5 -15 29
-12 6 0 11 -8 11 -19 0 -11 -4 -20 -8 -20 -4 0 -8 5 -8 12 0 6 -3 8 -6 5 -4
-3 1 -22 10 -41 18 -39 21 -63 6 -68 -5 -1 -11 -14 -12 -28 -2 -14 -7 -28 -13
-32 -6 -5 -5 -8 3 -8 6 0 12 -7 12 -15 0 -8 8 -15 18 -16 14 0 14 -2 -3 -9
-28 -12 -35 -12 -33 1 2 6 -5 13 -14 14 -26 5 -22 -10 9 -34 14 -12 23 -24 20
-28 -4 -3 -13 0 -22 7 -13 11 -14 10 -9 -5 6 -15 3 -17 -14 -13 -15 4 -19 2
-15 -8 3 -9 -1 -14 -12 -14 -9 0 -13 5 -10 10 3 6 1 10 -4 10 -6 0 -11 -7 -11
-15 0 -8 5 -15 10 -15 6 0 10 -4 10 -10 0 -5 -7 -10 -15 -10 -8 0 -15 -5 -15
-10 0 -6 -12 -15 -26 -20 -22 -9 -24 -13 -14 -25 9 -11 10 -15 1 -15 -7 0 -11
-8 -10 -17 1 -10 -1 -26 -6 -36 -4 -10 -5 -21 -2 -24 4 -3 2 -15 -4 -26 -8
-14 -8 -18 0 -13 19 12 12 -31 -13 -79 -14 -25 -23 -52 -20 -59 3 -7 -2 -19
-11 -26 -8 -7 -15 -19 -15 -26 0 -8 -6 -11 -15 -8 -9 4 -15 0 -15 -9 0 -9 -6
-20 -14 -24 -21 -13 -33 -45 -31 -85 1 -23 -2 -35 -10 -32 -16 6 -40 -47 -25
-56 7 -4 6 -16 -5 -36 -24 -47 -16 -71 14 -41 10 10 11 9 6 -5 -5 -12 -1 -20
10 -24 9 -4 14 -13 11 -20 -3 -7 -1 -16 4 -19 6 -4 10 -1 10 4 0 6 5 11 12 11
8 0 7 -6 -4 -16 -17 -18 -38 -11 -38 12 0 8 -4 14 -10 14 -19 0 1 -94 24 -112
17 -14 19 -19 9 -29 -11 -11 -13 -10 -13 4 0 9 -3 17 -7 17 -5 0 -8 -11 -8
-24 0 -13 3 -22 7 -20 4 2 9 0 12 -4 3 -5 -6 -14 -20 -21 -16 -7 -22 -16 -18
-23 18 -29 10 -48 -24 -58 -27 -7 -39 -6 -58 8 -25 18 -28 42 -5 50 10 3 12 0
8 -12 -4 -9 -2 -16 3 -16 6 0 10 2 10 4 0 2 3 11 6 19 4 12 -1 15 -20 13 -16
-2 -26 2 -26 10 0 9 11 11 35 8 33 -4 35 -3 26 15 -9 15 -7 20 9 24 12 3 20
14 20 27 l0 22 -19 -23 c-14 -18 -23 -21 -31 -13 -8 8 -7 14 5 24 17 14 21 35
4 25 -6 -4 -17 1 -24 11 -12 16 -14 16 -15 4 0 -9 5 -21 11 -27 7 -7 6 -12 -6
-17 -10 -4 -14 -2 -9 5 4 7 1 10 -6 7 -8 -2 -14 -14 -15 -26 -3 -33 -13 -38
-21 -8 -5 21 -9 24 -20 15 -12 -10 -13 -9 -8 5 3 9 1 16 -6 16 -6 0 -8 5 -4
11 4 7 1 10 -7 7 -8 -3 -13 -11 -11 -17 1 -7 -2 -10 -7 -7 -5 3 -7 20 -5 36 6
34 0 37 -24 14 -14 -15 -17 -15 -28 0 -14 20 -8 50 13 68 12 10 14 9 13 -3 -6
-36 0 -43 19 -23 12 13 15 23 9 31 -5 7 -7 16 -4 21 3 6 -2 16 -11 23 -15 12
-16 12 -10 -3 4 -12 2 -15 -8 -12 -22 9 -25 42 -4 47 11 3 19 11 18 19 0 10
-2 10 -6 1 -10 -26 -25 -13 -19 17 3 17 2 29 -2 28 -52 -25 -60 -32 -58 -52 1
-17 6 -22 19 -18 9 2 17 0 17 -6 0 -5 -11 -13 -25 -16 -14 -4 -25 -13 -25 -22
0 -8 -5 -12 -10 -9 -6 4 -7 11 -4 17 5 7 2 8 -6 3 -10 -6 -12 -4 -7 8 7 19 -8
23 -19 6 -4 -7 4 -20 17 -31 16 -13 20 -21 12 -25 -7 -2 -13 -11 -13 -19 0 -8
-5 -14 -11 -14 -6 0 -9 6 -6 13 3 8 -1 14 -9 14 -8 0 -13 -6 -10 -14 3 -7 0
-13 -7 -13 -7 -1 -5 -6 6 -14 9 -7 17 -17 17 -21 0 -4 -6 -3 -13 3 -7 6 -22 9
-34 6 -11 -3 -24 -1 -27 5 -4 6 0 11 8 11 19 0 21 11 4 28 -17 17 -31 15 -24
-3 3 -9 0 -15 -8 -15 -18 0 -51 31 -59 55 -5 14 -1 12 14 -8 27 -35 38 -27 32
22 -5 36 -2 43 44 89 26 28 47 56 45 61 -2 6 4 11 13 11 12 0 15 5 11 17 -6
16 18 47 39 51 6 1 11 10 13 22 2 11 7 18 12 15 4 -3 11 2 14 11 3 8 2 12 -4
9 -6 -3 -7 1 -4 10 5 12 14 15 30 11 16 -4 24 -2 24 6 1 7 7 2 15 -12 18 -32
18 -40 0 -40 -8 0 -15 -4 -15 -10 0 -13 23 -13 37 1 8 8 15 5 26 -11 16 -22
31 -13 21 13 -4 12 0 14 15 10 18 -5 21 -1 23 28 0 19 1 40 1 47 -1 6 3 12 8
12 15 0 45 36 41 48 -2 7 1 19 8 26 7 9 7 17 1 20 -5 3 -8 33 -7 67 1 40 -3
68 -13 82 -17 25 -53 53 -62 50 -4 -1 -10 9 -13 22 -4 14 -14 25 -22 25 -11 0
-14 6 -10 18 4 10 -3 7 -17 -9 -19 -23 -55 -31 -42 -9 3 5 -5 14 -17 21 -20
11 -21 10 -11 -3 11 -13 8 -15 -18 -16 -23 0 -29 3 -25 14 3 8 1 14 -4 14 -5
0 -7 7 -3 16 4 12 0 14 -20 9 -25 -7 -26 -6 -17 27 l9 33 -25 -30 c-17 -20
-22 -23 -15 -8 13 26 15 83 2 83 -10 0 -25 48 -22 68 1 7 -12 37 -28 66 -36
62 -40 103 -12 114 11 4 20 12 20 17 1 6 6 11 11 11 6 1 15 2 20 3 17 2 11 39
-7 50 -15 9 -12 10 17 10 19 1 66 -4 104 -9 38 -6 132 -11 210 -11 228 -1 314
28 372 127 18 31 29 42 34 33 5 -7 6 -18 3 -26z"/>
<path d="M1914 1406 c-54 -57 -104 -109 -109 -117 -36 -48 -42 -63 -39 -90 3
-24 1 -30 -11 -25 -11 4 -15 -1 -15 -19 0 -13 -5 -27 -11 -31 -6 -3 -9 -14 -6
-24 3 -12 -2 -20 -15 -23 -11 -3 -17 -10 -13 -16 3 -6 -1 -11 -10 -11 -9 0
-18 -12 -22 -30 -3 -17 -21 -43 -39 -60 -19 -16 -34 -36 -34 -45 0 -8 -4 -15
-10 -15 -5 0 -6 8 -3 17 5 12 2 15 -10 10 -9 -3 -19 -2 -22 2 -3 5 2 12 11 15
10 4 14 12 10 22 -5 12 -2 15 9 10 9 -3 13 -2 10 4 -3 6 0 12 7 15 8 3 14 21
14 42 0 20 5 38 12 41 7 2 12 10 12 18 0 8 4 14 9 14 5 0 13 9 16 21 4 12 14
29 23 38 40 42 63 73 58 79 -6 5 -151 -89 -195 -128 -13 -11 -27 -20 -31 -20
-3 0 -15 -8 -26 -18 -10 -9 -50 -37 -89 -62 -158 -103 -269 -199 -350 -305
-118 -155 -290 -460 -354 -630 -11 -27 -22 -58 -26 -68 -7 -16 23 -17 542 -17
l549 0 12 48 c6 26 17 89 23 141 11 91 27 159 28 118 1 -10 7 -20 15 -23 8 -3
19 -25 25 -50 11 -44 36 -64 27 -21 -34 160 -40 215 -17 178 14 -22 19 46 16
229 -3 171 3 273 26 455 14 113 30 181 73 320 19 60 34 110 32 112 -1 2 -47
-44 -102 -101z"/>
<path d="M4891 1098 c-3 -258 -21 -410 -55 -447 -13 -14 -16 -31 -12 -70 3
-28 0 -51 -5 -51 -5 0 -9 -9 -9 -19 0 -11 -4 -22 -10 -26 -6 -4 -6 -15 0 -30
10 -26 4 -55 -14 -67 -6 -4 -5 -12 3 -22 11 -13 11 -16 -2 -16 -13 0 -15 -9
-11 -47 2 -27 6 -60 10 -75 3 -15 -1 -41 -10 -60 -8 -18 -16 -40 -18 -48 -2
-8 -5 -17 -8 -20 -3 -3 -11 -23 -19 -45 -8 -22 -19 -43 -25 -47 -6 -4 14 -8
45 -8 53 0 56 1 72 35 21 45 37 45 37 0 l0 -35 499 0 500 0 -11 31 c-19 54
-198 401 -244 472 -53 82 -61 91 -226 244 -133 124 -211 212 -267 303 -85 138
-187 277 -211 288 -3 1 -7 -107 -9 -240z"/>
<path d="M2167 593 c-2 -5 -14 -46 -26 -93 -13 -47 -29 -110 -38 -140 -12 -44
-31 -231 -33 -337 l0 -23 1286 0 1287 0 -7 88 c-5 74 -22 187 -51 359 l-6 31
-57 -13 c-31 -8 -106 -23 -167 -35 -60 -12 -126 -25 -145 -30 -19 -5 -69 -16
-110 -25 -187 -41 -384 -100 -452 -136 -15 -8 -28 -6 -54 6 -19 9 -42 15 -51
13 -10 -2 -18 3 -18 10 0 8 -17 20 -37 27 -38 13 -86 8 -141 -14 -47 -19 -86
-14 -112 15 -20 22 -27 24 -40 14 -8 -7 -23 -9 -32 -6 -14 6 -15 9 -4 15 7 5
10 14 7 20 -5 7 1 11 16 11 21 0 21 1 5 17 -15 15 -22 16 -63 5 -25 -7 -64
-21 -86 -32 l-41 -19 -106 43 c-111 45 -352 129 -481 166 -41 12 -86 27 -100
32 -23 9 -125 38 -135 38 -2 0 -6 -3 -8 -7z"/>
</g>
</svg>
